<svg xmlns="http://www.w3.org/2000/svg" xml:space="preserve" viewBox="0 0 16 16"><path d="M7.9995-.0004c-4.4181 0-7.9998 3.5816-7.9997 7.9997 0 4.418 3.5817 7.9995 7.9997 7.9995 4.418-.0001 7.9993-3.5815 7.9994-7.9995 0-4.418-3.5814-7.9996-7.9994-7.9997zm2.0595 4.168 1.7558 1.3204-5.4723.0017V7.424l2.47-.0015 1.7658 1.2924-4.2314.025c.0022-.0628-.0044 2.1098-.0044 2.281l3.7298-.0016.251.2066-3.9808.0015v.1623l4.2404-.003.2507.2067-4.491.0029v.1224h4.7403l.251.2052-4.9913.0029v.1933l5.223-.0147.2284.2153-5.4515.0015v-.0015l-1.8073-1.3279.034-6.8104zm-5.4898.0147 1.772 1.3074h.0014z"/><path stroke="#000" stroke-linecap="round" stroke-linejoin="round" stroke-width=".039" d="m4.5676 4.923.9841.7082M4.5514 8.0214l.9974.7082m-.9856-3.1751.4721.354m-.4736.2568.475.3541m-.478.2612.4796.354m-.4825.276.4943.354m-.5031.897.4868.3542m-.4898.2656.4987.3555m-.5002.267.4958.3542m-.5002.2493.4898.3541"/></svg>