<?xml version="1.0" encoding="UTF-8" standalone="no"?>
<svg
   width="500"
   zoomAndPan="magnify"
   viewBox="0 0 375 374.999991"
   height="500"
   preserveAspectRatio="xMidYMid meet"
   version="1.0"
   id="svg54"
   sodipodi:docname="logo.svg"
   inkscape:version="1.2.1 (9c6d41e410, 2022-07-14, custom)"
   xmlns:inkscape="http://www.inkscape.org/namespaces/inkscape"
   xmlns:sodipodi="http://sodipodi.sourceforge.net/DTD/sodipodi-0.dtd"
   xmlns="http://www.w3.org/2000/svg"
   xmlns:svg="http://www.w3.org/2000/svg">
  <sodipodi:namedview
     id="namedview56"
     pagecolor="#ffffff"
     bordercolor="#000000"
     borderopacity="0.25"
     inkscape:showpageshadow="2"
     inkscape:pageopacity="0.0"
     inkscape:pagecheckerboard="0"
     inkscape:deskcolor="#d1d1d1"
     showgrid="false"
     inkscape:zoom="0.56073568"
     inkscape:cx="-150.69489"
     inkscape:cy="62.418001"
     inkscape:window-width="1920"
     inkscape:window-height="965"
     inkscape:window-x="0"
     inkscape:window-y="34"
     inkscape:window-maximized="1"
     inkscape:current-layer="svg54" />
  <defs
     id="defs14">
    <clipPath
       id="9ee24e3ad3">
      <path
         d="M 178 26.839844 L 197 26.839844 L 197 67 L 178 67 Z M 178 26.839844 "
         clip-rule="nonzero"
         id="path2" />
    </clipPath>
    <clipPath
       id="f96df8ef74">
      <path
         d="M 50.335938 154 L 93 154 L 93 174 L 50.335938 174 Z M 50.335938 154 "
         clip-rule="nonzero"
         id="path5" />
    </clipPath>
    <clipPath
       id="1197334e24">
      <path
         d="M 167 338 L 208 338 L 208 347.839844 L 167 347.839844 Z M 167 338 "
         clip-rule="nonzero"
         id="path8" />
    </clipPath>
    <clipPath
       id="c7abf37171">
      <path
         d="M 283 154.75 L 324.835938 154.75 L 324.835938 173.550781 L 283 173.550781 Z M 283 154.75 "
         clip-rule="nonzero"
         id="path11" />
    </clipPath>
  </defs>
  <path
     fill="#dbe2fe"
     d="M 187.5 0 C 83.945312 0 0 83.945312 0 187.5 C 0 291.054688 83.945312 375 187.5 375 C 291.054688 375 375 291.054688 375 187.5 C 375 83.945312 291.054688 0 187.5 0 "
     fill-opacity="1"
     fill-rule="nonzero"
     id="path22" />
  <path
     fill="#5162b8"
     d="M 261.558594 102.992188 L 284.636719 79.945312 C 288.203125 76.386719 288.203125 70.59375 284.636719 67.03125 C 281.058594 63.460938 275.269531 63.460938 271.691406 67.03125 L 248.933594 89.753906 C 253.53125 93.738281 257.726562 98.191406 261.558594 102.992188 "
     fill-opacity="1"
     fill-rule="nonzero"
     id="path24" />
  <g
     clip-path="url(#9ee24e3ad3)"
     id="g28">
    <path
       fill="#5162b8"
       d="M 187.582031 66.480469 C 187.667969 66.480469 187.742188 66.480469 187.835938 66.480469 C 190.851562 66.480469 193.808594 66.671875 196.734375 66.980469 L 196.734375 36.023438 C 196.734375 30.988281 192.636719 26.90625 187.582031 26.90625 C 182.527344 26.90625 178.449219 30.988281 178.449219 36.023438 L 178.449219 66.980469 C 181.363281 66.671875 184.324219 66.480469 187.324219 66.480469 C 187.410156 66.480469 187.496094 66.480469 187.582031 66.480469 "
       fill-opacity="1"
       fill-rule="nonzero"
       id="path26" />
  </g>
  <path
     fill="#5162b8"
     d="M 113.617188 103.003906 C 117.4375 98.203125 121.617188 93.738281 126.207031 89.753906 L 103.460938 67.03125 C 99.894531 63.460938 94.09375 63.460938 90.53125 67.03125 C 86.941406 70.59375 86.941406 76.386719 90.53125 79.945312 L 113.617188 103.003906 "
     fill-opacity="1"
     fill-rule="nonzero"
     id="path30" />
  <g
     clip-path="url(#f96df8ef74)"
     id="g34">
    <path
       fill="#5162b8"
       d="M 91.125 167.789062 C 91.125 163.375 91.484375 159.050781 92.007812 154.800781 L 59.480469 154.800781 C 54.421875 154.800781 50.335938 158.890625 50.335938 163.929688 C 50.335938 168.976562 54.421875 173.066406 59.480469 173.066406 L 91.242188 173.066406 C 91.1875 171.335938 91.125 169.582031 91.125 167.789062 "
       fill-opacity="1"
       fill-rule="nonzero"
       id="path32" />
  </g>
  <path
     fill="#5162b8"
     d="M 90.53125 247.902344 C 86.941406 251.460938 86.941406 257.253906 90.53125 260.824219 C 94.09375 264.394531 99.894531 264.394531 103.460938 260.824219 L 120.226562 244.085938 C 116.449219 239.835938 112.496094 235.128906 108.792969 229.675781 L 90.53125 247.902344 "
     fill-opacity="1"
     fill-rule="nonzero"
     id="path36" />
  <g
     clip-path="url(#1197334e24)"
     id="g40">
    <path
       fill="#5162b8"
       d="M 191.671875 338.261719 L 167.667969 338.261719 C 167.65625 338.539062 167.613281 338.78125 167.613281 339.058594 C 167.613281 343.875 175.019531 347.773438 181.886719 347.773438 L 193.277344 347.773438 C 200.140625 347.773438 207.539062 343.875 207.539062 339.058594 C 207.539062 338.78125 207.507812 338.539062 207.507812 338.261719 L 191.671875 338.261719 "
       fill-opacity="1"
       fill-rule="nonzero"
       id="path38" />
  </g>
  <path
     fill="#5162b8"
     d="M 210.890625 316.074219 L 164.28125 316.074219 C 159.460938 316.074219 155.554688 319.984375 155.554688 324.785156 C 155.554688 329.601562 159.460938 333.523438 164.28125 333.523438 L 210.890625 333.523438 C 215.703125 333.523438 219.609375 329.601562 219.609375 324.785156 C 219.609375 319.984375 215.703125 316.074219 210.890625 316.074219 "
     fill-opacity="1"
     fill-rule="nonzero"
     id="path42" />
  <path
     fill="#5162b8"
     d="M 210.890625 294.066406 L 164.28125 294.066406 C 159.460938 294.066406 155.554688 297.964844 155.554688 302.789062 C 155.554688 307.59375 159.460938 311.503906 164.28125 311.503906 L 210.890625 311.503906 C 215.703125 311.503906 219.609375 307.59375 219.609375 302.789062 C 219.609375 297.964844 215.703125 294.066406 210.890625 294.066406 "
     fill-opacity="1"
     fill-rule="nonzero"
     id="path44" />
  <path
     fill="#5162b8"
     d="M 182.886719 120.136719 C 172.308594 120.550781 165.101562 123.417969 159.609375 127.328125 C 154.136719 131.25 150.296875 136.480469 147.550781 142.066406 C 142.035156 153.195312 141.570312 165.53125 141.601562 166.363281 L 141.601562 166.371094 C 141.601562 171.578125 137.363281 175.808594 132.15625 175.808594 C 126.941406 175.808594 122.703125 171.578125 122.703125 166.371094 C 122.703125 165.96875 122.726562 161.175781 123.984375 154.257812 C 125.25 147.351562 127.730469 138.265625 132.988281 129.308594 C 136.492188 123.355469 141.28125 117.457031 147.761719 112.609375 C 156.382812 106.128906 167.953125 101.761719 182.226562 101.292969 C 187.441406 101.113281 191.816406 105.183594 192 110.390625 C 192.191406 115.589844 188.113281 119.964844 182.886719 120.136719 Z M 271.332031 167.789062 C 271.339844 148.839844 265.015625 131.3125 254.386719 117.300781 C 245.039062 104.960938 232.351562 95.300781 217.640625 89.625 L 217.726562 89.222656 L 211.445312 87.382812 C 206.570312 85.96875 201.546875 84.992188 196.417969 84.472656 L 195.683594 84.375 L 195.628906 84.375 C 193.125 84.144531 190.511719 83.960938 187.785156 83.960938 L 187.378906 83.960938 C 184.65625 83.960938 182.035156 84.144531 179.523438 84.375 L 179.492188 84.375 L 178.726562 84.472656 C 173.605469 84.992188 168.582031 85.96875 163.71875 87.382812 L 157.640625 89.160156 L 157.707031 89.5625 C 142.929688 95.226562 130.179688 104.917969 120.78125 117.300781 C 110.136719 131.3125 103.8125 148.839844 103.835938 167.789062 C 103.8125 181.367188 106.164062 192.546875 109.835938 201.792969 C 115.320312 215.660156 123.71875 225.03125 130.445312 232.121094 C 133.816406 235.671875 136.777344 238.691406 138.808594 241.261719 C 140.855469 243.875 141.84375 245.882812 142.140625 247.476562 C 143.609375 255.234375 143.761719 265.023438 143.761719 267.511719 L 143.75 267.988281 L 143.75 268.21875 C 143.761719 279.445312 152.859375 288.507812 164.082031 288.507812 L 211.085938 288.507812 C 222.3125 288.507812 231.402344 279.433594 231.414062 268.21875 L 231.414062 268.113281 L 231.402344 267.988281 L 231.402344 267.53125 C 231.394531 265.074219 231.550781 255.253906 233.035156 247.488281 C 233.226562 246.402344 233.714844 245.183594 234.652344 243.683594 C 236.257812 241.058594 239.300781 237.773438 243.058594 233.855469 C 248.691406 227.945312 255.875 220.484375 261.558594 209.878906 C 267.277344 199.304688 271.359375 185.617188 271.332031 167.789062 "
     fill-opacity="1"
     fill-rule="nonzero"
     id="path46" />
  <path
     fill="#5162b8"
     d="M 266.378906 229.675781 C 262.664062 235.140625 258.71875 239.835938 254.9375 244.085938 L 271.691406 260.824219 C 275.269531 264.394531 281.058594 264.394531 284.636719 260.824219 C 288.203125 257.253906 288.203125 251.460938 284.636719 247.902344 L 266.378906 229.675781 "
     fill-opacity="1"
     fill-rule="nonzero"
     id="path48" />
  <g
     clip-path="url(#c7abf37171)"
     id="g52">
    <path
       fill="#5162b8"
       d="M 315.6875 154.800781 L 283.167969 154.800781 C 283.6875 159.050781 284.027344 163.375 284.027344 167.789062 C 284.027344 169.582031 283.984375 171.335938 283.921875 173.066406 L 315.6875 173.066406 C 320.742188 173.066406 324.839844 168.976562 324.839844 163.929688 C 324.839844 158.890625 320.742188 154.800781 315.6875 154.800781 "
       fill-opacity="1"
       fill-rule="nonzero"
       id="path50" />
  </g>
</svg>
