<svg width="1680" height="1026" viewBox="0 0 1680 1026" fill="none" xmlns="http://www.w3.org/2000/svg">
<rect x="1071.97" y="-247.871" width="699.625" height="699.625" rx="185" transform="rotate(-21.2136 1071.97 -247.871)" fill="#7087FF" fill-opacity="0.56"/>
<rect x="-255" y="926.62" width="593.123" height="593.123" rx="185" transform="rotate(-21.2136 -255 926.62)" fill="#53DFCB" fill-opacity="0.56"/>
<circle cx="1525.61" cy="549.609" r="50.6577" transform="rotate(-77.2191 1525.61 549.609)" fill="#7087FF"/>
<path d="M1628.87 484.657C1613.97 496.836 1591.47 488.316 1588.37 469.321L1572.11 369.549C1569.02 350.555 1587.64 335.332 1605.64 342.148L1700.18 377.95C1718.17 384.766 1722.04 408.509 1707.14 420.688L1628.87 484.657Z" fill="#FCD47C" fill-opacity="0.56"/>
<rect x="1583.54" y="649.976" width="109.833" height="109.833" rx="28" transform="rotate(-30.0357 1583.54 649.976)" fill="#F54A87" fill-opacity="0.56"/>
<path d="M57.2195 518.598C71.0149 505.18 94.163 511.727 98.8861 530.384L123.695 628.381C128.418 647.037 111.174 663.81 92.6555 658.573L-4.61719 631.059C-23.1357 625.821 -29.0395 602.501 -15.2441 589.082L57.2195 518.598Z" fill="#FCD47C"/>
<rect x="60.8301" y="407.534" width="109.833" height="109.833" rx="28" transform="rotate(-158.808 60.8301 407.534)" fill="#F54A87" fill-opacity="0.56"/>
</svg>
