<svg id="Layer_1" data-name="Layer 1" xmlns="http://www.w3.org/2000/svg" viewBox="0 0 989.56 989.56"><defs><style>.cls-1{fill:#afb0c7;}.cls-2{fill:#57586c;}.cls-3{fill:#e8e9e9;}.cls-4{fill:#787da9;}.cls-5{fill:#feffff;}.cls-6{fill:#fff;stroke:#231f20;stroke-miterlimit:10;}</style></defs><path class="cls-1" d="M989.56,494.78A492.74,492.74,0,0,1,907.1,768.39C818.45,901.7,666.89,989.56,494.78,989.56,221.52,989.56,0,768.05,0,494.78S221.52,0,494.78,0,989.56,221.53,989.56,494.78Z"/><polygon class="cls-2" points="393.94 338.36 283.41 257.45 624.82 257.45 735.28 338.32 393.94 338.36"/><polygon class="cls-3" points="643.32 693.37 301.96 693.35 283.47 679.82 624.82 679.82 643.32 693.37"/><polygon class="cls-3" points="674.75 716.37 333.36 716.35 327.65 712.16 327.63 712.14 327.62 712.14 314.82 702.76 656.16 702.76 674.75 716.37"/><polygon class="cls-3" points="705.01 738.52 363.65 738.5 345.09 724.92 686.45 724.94 705.01 738.52"/><polygon class="cls-3" points="735.28 760.68 393.92 760.68 375.37 747.08 716.74 747.1 735.28 760.68"/><polygon class="cls-4" points="393.94 539.15 283.41 458.25 548.61 458.25 659.07 539.11 393.94 539.15"/><polygon class="cls-5" points="393.94 338.35 393.94 760.69 283.41 679.79 283.41 257.45 393.94 338.35"/><path class="cls-6" d="M283.56,494.78l61.68,44.33Z"/><polyline class="cls-6" points="283.46 533.89 314.4 556.74 283.46 533.89"/><polyline class="cls-6" points="283.46 571.84 314.4 594.68 283.46 571.84"/><polyline class="cls-6" points="283.46 609.95 314.4 632.79 283.46 609.95"/><polyline class="cls-6" points="283.46 648.53 314.4 671.38 283.46 648.53"/><path class="cls-6" d="M283.51,302.53l61.68,44.33Z"/><polyline class="cls-6" points="283.41 341.64 314.35 364.49 283.41 341.64"/><polyline class="cls-6" points="283.41 379.58 314.35 402.43 283.41 379.58"/><polyline class="cls-6" points="283.41 417.69 314.35 440.54 283.41 417.69"/><polyline class="cls-6" points="283.41 456.28 314.35 479.13 283.41 456.28"/></svg>