<svg xmlns="http://www.w3.org/2000/svg" xml:space="preserve" viewBox="0 0 108.44 108.44"><g transform="translate(-50.58 -94.79)"><circle cx="104.8" cy="149.01" r="54.22" style="display:inline;fill:#aeb0c7;fill-opacity:1;stroke-width:.264583"/><path d="M81.55 123.14 93.56 132l37.1-.01-11.9-8.95z" style="display:inline;fill:#575a6d;fill-opacity:1;stroke:none;stroke-width:.264583px;stroke-linecap:butt;stroke-linejoin:miter;stroke-opacity:1"/><path d="m110.31 145.1 11.97 8.76-28.68.17-.2-8.92z" style="display:inline;fill:#797daa;fill-opacity:1;stroke:none;stroke-width:.264583px;stroke-linecap:butt;stroke-linejoin:miter;stroke-opacity:1"/><path d="m120.55 170.88-1.7-1.4-25.88.01.2 1.4zM124.01 173.37l-1.7-1.4-28.97.02.04 1.4zM127.4 175.61l-1.7-1.39H93.45l-.06 1.41zM130.52 178.3l-1.55-1.46-35.4.1v1.37z" style="fill:#ebebed;fill-opacity:1;stroke:none;stroke-width:.264583px;stroke-linecap:butt;stroke-linejoin:miter;stroke-opacity:1"/><path d="M81.55 123.14 93.57 132v46.3l-12.25-9z" style="display:inline;fill:#fff;fill-opacity:1;stroke:none;stroke-width:.264583px;stroke-linecap:butt;stroke-linejoin:miter;stroke-opacity:1"/><path d="m81.54 128.16 6.67 4.8" style="fill:none;stroke:#747474;stroke-width:.264583px;stroke-linecap:round;stroke-linejoin:round;stroke-opacity:1;paint-order:normal"/><path d="m81.43 149.16 6.76 4.8M81.51 132.44l3.2 2.4M81.5 136.58l3.22 2.4M81.48 140.75l3.25 2.4M81.46 145.02l3.35 2.4M81.4 153.5l3.3 2.4M81.38 157.7l3.38 2.41M81.37 161.92l3.36 2.4" style="fill:none;stroke:#747474;stroke-width:.264583px;stroke-linecap:round;stroke-linejoin:round;stroke-opacity:1"/><path d="m81.34 166.01 3.32 2.4" style="fill:none;stroke:#747474;stroke-width:.264583px;stroke-linecap:round;stroke-linejoin:round;stroke-opacity:1;paint-order:normal"/></g></svg>